<svg xmlns="http://www.w3.org/2000/svg" width="21" height="20" viewBox="0 0 21 20" fill="none">
  <path d="M10.0058 1.79803C12.6795 1.79803 12.9947 1.79801 14.0455 1.85639C14.6801 1.86352 15.3084 1.98208 15.9019 2.20665C16.3435 2.36235 16.7431 2.61809 17.0695 2.95388C17.4024 3.28255 17.6577 3.68145 17.8167 4.12142C18.0385 4.7157 18.157 5.34358 18.167 5.97783C18.167 7.04029 18.167 7.35551 18.167 10.0292C18.167 12.7029 18.167 13.0064 18.167 14.0689C18.157 14.7031 18.0385 15.331 17.8167 15.9253C17.6577 16.3653 17.4024 16.7641 17.0695 17.0928C16.7431 17.4286 16.3435 17.6844 15.9019 17.84C15.3084 18.0646 14.6801 18.1832 14.0455 18.1903C12.9947 18.1903 12.6795 18.2487 10.0058 18.2487C7.33217 18.2487 7.0286 18.2487 5.96613 18.1903C5.33174 18.1818 4.70364 18.0632 4.10975 17.84C3.66758 17.6855 3.26773 17.4296 2.9422 17.0928C2.60541 16.7673 2.34951 16.3674 2.19498 15.9253C1.97313 15.331 1.85466 14.7031 1.84471 14.0689C1.84471 13.0064 1.84471 12.6912 1.84471 10.0292C1.84471 7.36719 1.84471 7.04029 1.84471 5.97783C1.85466 5.34358 1.97313 4.7157 2.19498 4.12142C2.34951 3.67926 2.60541 3.27941 2.9422 2.95388C3.26773 2.61709 3.66758 2.36119 4.10975 2.20665C4.70364 1.98346 5.33174 1.86495 5.96613 1.85639C7.0286 1.85639 7.34384 1.79803 10.0058 1.79803ZM10.0058 0C7.29714 0 6.95854 0 5.88441 0C5.05443 0.0181714 4.23344 0.176064 3.45592 0.467028C2.78894 0.720627 2.18672 1.11944 1.69293 1.63457C1.17781 2.12836 0.77899 2.73057 0.525391 3.39755C0.234427 4.17507 0.0765432 4.99606 0.0583718 5.82604C0.0583718 6.90018 0 7.23876 0 9.95914C0 12.6795 -5.34579e-06 13.0064 0.0583718 14.0806C0.0765432 14.9105 0.234427 15.7315 0.525391 16.509C0.77899 17.176 1.17781 17.7783 1.69293 18.272C2.18672 18.7872 2.78894 19.186 3.45592 19.4396C4.23344 19.7306 5.05443 19.8884 5.88441 19.9066C6.95854 19.9066 7.29714 19.965 10.0058 19.965C12.7145 19.965 13.0648 19.965 14.1273 19.9066C14.9575 19.8909 15.7789 19.733 16.5557 19.4396C17.2262 19.1861 17.8323 18.7874 18.3304 18.272C18.8455 17.7783 19.2444 17.176 19.498 16.509C19.7889 15.7315 19.9468 14.9105 19.965 14.0806C19.965 13.0064 20.0233 12.6678 20.0233 9.95914C20.0233 7.25044 20.0233 6.90018 19.965 5.82604C19.9468 4.99606 19.7889 4.17507 19.498 3.39755C19.2444 2.73057 18.8455 2.12836 18.3304 1.63457C17.8323 1.11921 17.2262 0.720492 16.5557 0.467028C15.7789 0.173657 14.9575 0.0156838 14.1273 0C13.0648 0 12.7262 0 10.0058 0Z" fill="#FFFDFE"/>
  <path d="M10.0058 4.85698C9.33177 4.85698 8.66431 4.98995 8.04169 5.24826C7.41907 5.50657 6.85352 5.88515 6.37742 6.36234C5.90132 6.83952 5.52402 7.40593 5.26713 8.02913C5.01024 8.65234 4.8788 9.32009 4.88033 9.99416C4.88033 11.3535 5.42034 12.6572 6.38156 13.6184C7.34277 14.5797 8.64647 15.1197 10.0058 15.1197C11.3663 15.1197 12.6712 14.58 13.6343 13.6192C14.5973 12.6583 15.1399 11.3546 15.143 9.99416C15.143 8.63169 14.6018 7.32503 13.6384 6.36162C12.675 5.39821 11.3683 4.85698 10.0058 4.85698ZM10.0058 13.3217C9.12428 13.3186 8.27971 12.967 7.65635 12.3437C7.03298 11.7203 6.68142 10.8757 6.67834 9.99416C6.67833 9.11058 7.02854 8.26301 7.65223 7.63713C8.27592 7.01124 9.12226 6.65808 10.0058 6.65499C10.8914 6.65499 11.7408 7.00679 12.367 7.63301C12.9932 8.25923 13.345 9.10856 13.345 9.99416C13.3419 10.8777 12.9887 11.7241 12.3629 12.3478C11.737 12.9715 10.8894 13.3217 10.0058 13.3217Z" fill="#FFFDFE"/>
  <path d="M16.5441 4.6585C16.5441 4.96815 16.4211 5.26512 16.2021 5.48408C15.9832 5.70304 15.6862 5.82604 15.3765 5.82604C15.0669 5.82604 14.7699 5.70304 14.551 5.48408C14.332 5.26512 14.209 4.96815 14.209 4.6585C14.209 4.34885 14.332 4.05188 14.551 3.83292C14.7699 3.61397 15.0669 3.49096 15.3765 3.49096C15.6862 3.49096 15.9832 3.61397 16.2021 3.83292C16.4211 4.05188 16.5441 4.34885 16.5441 4.6585Z" fill="#FFFDFE"/>
</svg>