<svg xmlns="http://www.w3.org/2000/svg" width="21" height="19" viewBox="0 0 21 19" fill="none">
  <path d="M19.1268 3.39391L19.1268 3.3939C18.9047 2.84498 18.5554 2.34477 18.1006 1.9295L18.0937 1.92317L18.0937 1.92311C17.6475 1.50003 17.1052 1.17046 16.5036 0.95952L16.4998 0.958185L16.4998 0.95817C15.9167 0.748476 15.2419 0.599186 14.2225 0.555314L19.1268 3.39391ZM19.1268 3.39391L19.1286 3.39812M19.1268 3.39391L19.1286 3.39812M19.1286 3.39812C19.3501 3.93168 19.5084 4.54946 19.555 5.48789L19.1286 3.39812ZM6.0292 0.556715L6.02723 0.556803C5.00854 0.597898 4.33452 0.7471 3.75225 0.957833L3.74792 0.959399L3.74791 0.959379C3.14624 1.17089 2.60379 1.50054 2.15701 1.92341L2.15089 1.9292L2.15084 1.92915C1.69635 2.34503 1.34687 2.84541 1.12404 3.39441L1.12253 3.39813L1.12251 3.39812C0.900938 3.93168 0.742671 4.54946 0.696037 5.48789L6.0292 0.556715ZM6.0292 0.556715C7.08283 0.510023 7.4151 0.5 10.1255 0.5C12.8359 0.5 13.1685 0.510019 14.2225 0.555313L6.0292 0.556715ZM0.697535 13.1031L0.697652 13.1054C0.741324 14.043 0.899462 14.6599 1.12209 15.1926L1.12404 15.1973L1.12401 15.1973C1.34717 15.7469 1.69677 16.2464 2.15114 16.6629L2.15675 16.668L2.15671 16.6681C2.60387 17.0906 3.14699 17.4206 3.74831 17.6325L3.75131 17.6336C4.33435 17.8433 5.00915 17.9926 6.02857 18.0364C7.08275 18.0803 7.41637 18.0917 10.1255 18.0917C12.8354 18.0917 13.1682 18.0803 14.2225 18.035L14.2238 18.0349C15.2425 17.9939 15.9165 17.8447 16.4988 17.6339L16.4995 17.6337C17.1013 17.4169 17.6464 17.0865 18.0981 16.666L0.697535 13.1031ZM0.697535 13.1031C0.647492 12.1251 0.636719 11.8179 0.636719 9.29587C0.636719 6.774 0.647487 6.46637 0.696036 5.48793L0.697535 13.1031ZM4.32963 17.3586L4.32835 17.3582C3.61553 17.157 3.02221 16.8714 2.4186 16.246C1.81287 15.6199 1.62221 15.0811 1.46823 14.6055C1.2936 14.0679 1.24416 13.3851 1.2048 12.5597C1.17028 11.879 1.17039 11.562 1.17346 10.3893V8.20249C1.17039 7.02974 1.17028 6.71272 1.2048 6.03206C1.24415 5.20695 1.29357 4.52432 1.46807 3.98674C1.62132 3.50835 1.81392 2.97225 2.41861 2.34572C3.02221 1.7203 3.61554 1.43475 4.32835 1.23353L4.32963 1.23317C5.04539 1.03319 5.92151 0.992981 6.61749 0.963476L6.61818 0.963447C7.4306 0.930134 7.76062 0.930134 9.4348 0.930135H9.44476H11.2593C12.0486 0.919278 12.8381 0.928938 13.6269 0.959103L13.6285 0.959162C14.518 0.995957 15.2367 1.04339 15.8008 1.20008L15.8024 1.20051C16.3042 1.34167 16.8718 1.51524 17.541 2.07446C18.2146 2.63608 18.5281 3.1948 18.7475 3.87484L4.32963 17.3586ZM4.32963 17.3586C5.04568 17.5586 5.92248 17.5974 6.61749 17.6268M4.32963 17.3586L11.2622 17.6616H9.44476H9.4343C7.76075 17.6616 7.4302 17.6616 6.61749 17.6268M15.8024 17.3912L15.8008 17.3917C15.2366 17.5484 14.5171 17.5944 13.6292 17.6326M15.8024 17.3912L11.3834 17.1617L11.2627 17.1616V17.6616L11.3889 17.6618C12.5773 17.6631 12.9159 17.6635 13.6292 17.6326M15.8024 17.3912C16.3046 17.25 16.8736 17.0749 17.5413 16.517L17.5413 16.517M15.8024 17.3912L17.5413 16.517M13.6292 17.6326L13.6078 17.133L13.6295 17.6325C13.6294 17.6325 13.6293 17.6325 13.6292 17.6326ZM6.61749 17.6268L6.63867 17.1273L6.6173 17.6268C6.61736 17.6268 6.61743 17.6268 6.61749 17.6268ZM17.5413 16.517C18.2135 15.9551 18.5265 15.3952 18.7472 14.718L18.7475 14.7169M17.5413 16.517L18.7475 14.7169M18.7475 14.7169C18.9668 14.039 19.0101 13.2106 19.0417 12.5653L19.0417 12.5645M18.7475 14.7169L19.0417 12.5645M19.0417 12.5645C19.0776 11.8061 19.0776 11.4982 19.0776 9.94651V9.93514V8.66232V8.65093C19.0776 7.09502 19.0776 6.78705 19.0417 6.0273L19.0417 6.02645M19.0417 12.5645L19.0417 6.02645M19.0417 6.02645C19.0101 5.38124 18.9668 4.55305 18.7476 3.87517L19.0417 6.02645ZM19.1286 15.1936C19.3501 14.6601 19.5084 14.0423 19.555 13.1039C19.555 13.1038 19.555 13.1038 19.555 13.1038L19.1286 15.1936ZM19.1286 15.1936C18.9001 15.7422 18.5486 16.2454 18.0982 16.6659L19.1286 15.1936ZM10.1255 5.57807C9.08703 5.57807 8.08447 5.96166 7.33996 6.65452C6.59424 7.34851 6.16787 8.29778 6.16787 9.29587C6.16787 10.294 6.59424 11.2432 7.33996 11.9372C8.08447 12.6301 9.08703 13.0137 10.1255 13.0137C11.164 13.0137 12.1666 12.6301 12.9111 11.9372C13.6568 11.2432 14.0832 10.294 14.0832 9.29587C14.0832 8.29778 13.6568 7.34851 12.9111 6.65452C12.1666 5.96166 11.164 5.57807 10.1255 5.57807ZM5.63113 9.29587C5.63113 8.20785 6.09523 7.15643 6.93458 6.37531C7.77515 5.59306 8.92241 5.14794 10.1255 5.14794C11.3287 5.14794 12.4759 5.59306 13.3165 6.37531C14.1558 7.15643 14.6199 8.20785 14.6199 9.29587C14.6199 10.3839 14.1558 11.4353 13.3165 12.2164C12.4759 12.9987 11.3287 13.4438 10.1255 13.4438C8.92241 13.4438 7.77515 12.9987 6.93458 12.2164C6.09523 11.4353 5.63113 10.3839 5.63113 9.29587ZM15.9324 4.72573C15.8123 4.83748 15.6422 4.90591 15.458 4.90591C15.2738 4.90591 15.1037 4.83748 14.9837 4.72573C14.8648 4.61511 14.8055 4.4731 14.8055 4.33331C14.8055 4.19352 14.8648 4.0515 14.9837 3.94089C15.1037 3.82914 15.2738 3.76071 15.458 3.76071C15.6422 3.76071 15.8123 3.82914 15.9324 3.94089C16.0512 4.0515 16.1106 4.19352 16.1106 4.33331C16.1106 4.4731 16.0512 4.61511 15.9324 4.72573Z" fill="transparent" stroke="#fff"/>
</svg>