<svg xmlns="http://www.w3.org/2000/svg" width="19" height="23" viewBox="0 0 19 23" fill="none">
  <path d="M6.70668 7.56216C7.66564 6.57727 8.52949 6.16594 9.81488 6.16594C11.1003 6.16594 14.0293 6.63088 13.6216 11.4249C13.214 16.2184 10.326 16.0633 9.81488 16.0633C7.91496 16.0633 6.40519 15.2724 6.40519 13.2865C6.40519 10.5572 9.46999 10.4163 10.4964 10.4163C13.0025 10.4163 17.1542 11.2 17.1542 15.5049C17.1542 20.7486 11.1612 21.4 9.60573 21.4C5.8613 21.4 1 19.4454 1 10.8665C1 2.28757 7.27643 1 9.81488 1C12.3533 1 15.9389 1.38001 18 7.0811" stroke="#FFFDFE" stroke-width="1.5" stroke-linecap="round" stroke-linejoin="round"/>
</svg>