<svg xmlns="http://www.w3.org/2000/svg" width="20" height="23" viewBox="0 0 20 23" fill="none">
  <g clip-path="url(#clip0_378_10)">
    <path d="M7.29311 22.6495C5.40117 22.6495 3.58672 21.8979 2.24892 20.5601C0.911115 19.2223 0.159546 17.4079 0.159546 15.5159C0.159546 13.624 0.911115 11.8095 2.24892 10.4717C3.58672 9.13394 5.40117 8.38237 7.29311 8.38237C7.65139 8.38116 8.0092 8.40837 8.36318 8.46375C8.47425 8.48043 8.57569 8.5363 8.64914 8.62128C8.7226 8.70625 8.76322 8.8147 8.76365 8.92702V12.4877C8.76375 12.5623 8.74643 12.636 8.71305 12.7027C8.67968 12.7694 8.63118 12.8275 8.57143 12.8722C8.51074 12.916 8.44047 12.9446 8.36646 12.9558C8.29245 12.9669 8.21685 12.9602 8.14596 12.9362C7.87155 12.844 7.58388 12.7975 7.29439 12.7985C6.58133 12.8094 5.90118 13.1004 5.40079 13.6085C4.90041 14.1166 4.61993 14.8012 4.61993 15.5143C4.61993 16.2275 4.90041 16.912 5.40079 17.4202C5.90118 17.9283 6.58133 18.2192 7.29439 18.2302C7.58369 18.2296 7.87093 18.1815 8.14468 18.0879C8.68377 17.9091 9.15311 17.5655 9.4865 17.1057C9.8199 16.6458 10.0005 16.0929 10.0029 15.5249V0.629831C10.0037 0.505635 10.0534 0.386753 10.1411 0.298871C10.2289 0.210989 10.3477 0.161163 10.4719 0.160156H13.9512C14.0755 0.160996 14.1945 0.210748 14.2824 0.298648C14.3703 0.386548 14.4201 0.505525 14.4209 0.629831C14.4228 1.94134 14.945 3.19852 15.8729 4.12536C16.8008 5.0522 18.0586 5.57295 19.3701 5.57329C19.4943 5.57412 19.6132 5.62379 19.7011 5.71155C19.789 5.79931 19.8388 5.91812 19.8398 6.04232V9.53382C19.839 9.65812 19.7892 9.7771 19.7013 9.865C19.6134 9.9529 19.4944 10.0027 19.3701 10.0035C18.1169 10.0046 16.8763 9.75338 15.7223 9.2647C15.2734 9.07304 14.8395 8.84815 14.4241 8.5919V15.5537C14.4159 17.2537 13.8012 18.8948 12.6907 20.1819C11.5802 21.469 10.0468 22.3174 8.36638 22.5745C8.0119 22.6246 7.65432 22.6497 7.29632 22.6495H7.29311ZM7.29311 9.3339C5.65183 9.3339 4.07778 9.98589 2.91722 11.1465C1.75666 12.307 1.10466 13.8811 1.10466 15.5223C1.10466 17.1636 1.75666 18.7377 2.91722 19.8982C4.07778 21.0588 5.65183 21.7108 7.29311 21.7108C7.60532 21.7099 7.91707 21.687 8.22606 21.6422C9.685 21.4188 11.0164 20.6823 11.9809 19.5651C12.9454 18.4479 13.4798 17.0233 13.488 15.5473V7.68779C13.4886 7.60022 13.5137 7.51457 13.5604 7.44049C13.6071 7.3664 13.6735 7.30683 13.7522 7.26847C13.831 7.2301 13.9188 7.21448 14.0059 7.22336C14.0931 7.23224 14.176 7.26526 14.2453 7.31871C15.5885 8.35567 17.215 8.96011 18.9094 9.05196V6.512C17.5163 6.39821 16.2089 5.79353 15.22 4.80571C14.2311 3.81789 13.625 2.51107 13.5098 1.11809H10.9467V15.5409C10.9441 16.3064 10.7011 17.0516 10.252 17.6714C9.80292 18.2913 9.17044 18.7544 8.44392 18.9953C8.07218 19.12 7.68264 19.1834 7.29055 19.183C6.32138 19.183 5.39191 18.798 4.70661 18.1127C4.0213 17.4274 3.6363 16.4979 3.6363 15.5288C3.6363 14.5596 4.0213 13.6301 4.70661 12.9448C5.39191 12.2595 6.32138 11.8745 7.29055 11.8745C7.46848 11.8742 7.64621 11.8867 7.82238 11.9117V9.36081C7.6476 9.34306 7.47199 9.33472 7.29632 9.33582L7.29311 9.3339Z" fill="white"/>
    <path d="M7.29298 22.8097C5.35856 22.8097 3.50337 22.0413 2.13552 20.6734C0.767676 19.3056 -0.000770569 17.4504 -0.000770569 15.516C-0.000770569 13.5815 0.767676 11.7264 2.13552 10.3585C3.50337 8.99066 5.35856 8.22222 7.29298 8.22222C7.65987 8.22093 8.02627 8.249 8.38868 8.30615C8.53728 8.32878 8.67288 8.40381 8.771 8.51767C8.86912 8.63154 8.92329 8.77674 8.92372 8.92705V12.4877C8.92372 12.5872 8.90056 12.6853 8.85607 12.7743C8.81158 12.8633 8.74699 12.9407 8.66741 13.0004C8.58558 13.0593 8.49078 13.0978 8.39098 13.1125C8.29118 13.1273 8.18931 13.1178 8.09393 13.0849C7.83665 12.9986 7.56691 12.9554 7.29555 12.9568C6.62475 12.9674 5.98502 13.2413 5.51441 13.7195C5.0438 14.1976 4.78003 14.8416 4.78003 15.5124C4.78003 16.1833 5.0438 16.8273 5.51441 17.3054C5.98502 17.7836 6.62475 18.0575 7.29555 18.0681C7.56734 18.0697 7.83754 18.0264 8.09522 17.94C8.60276 17.7711 9.04458 17.4473 9.35849 17.0142C9.6724 16.5811 9.84259 16.0605 9.84513 15.5256V0.629865C9.8453 0.462977 9.91162 0.302964 10.0296 0.184897C10.1475 0.066829 10.3075 0.000339117 10.4744 0H13.9537C14.1207 0.000169628 14.2808 0.0665838 14.3989 0.18467C14.517 0.302756 14.5834 0.462866 14.5835 0.629865C14.5857 1.89879 15.0912 3.11502 15.989 4.01174C16.8868 4.90847 18.1036 5.41245 19.3726 5.41313C19.5395 5.41313 19.6996 5.4794 19.8177 5.59738C19.9358 5.71537 20.0023 5.87541 20.0024 6.04235V9.53385C20.0023 9.70085 19.9358 9.86096 19.8178 9.97904C19.6997 10.0971 19.5396 10.1635 19.3726 10.1637C18.0981 10.1647 16.8364 9.90927 15.6626 9.41274C15.2925 9.25404 14.9322 9.07345 14.5835 8.87194V15.5538C14.5748 17.2916 13.9461 18.9693 12.8106 20.2849C11.675 21.6005 10.1072 22.4677 8.38932 22.7303C8.02623 22.7828 7.65985 22.8093 7.29298 22.8097ZM7.29298 8.54259C5.44353 8.54259 3.66983 9.27729 2.36206 10.585C1.0543 11.8928 0.319609 13.6665 0.319609 15.516C0.319609 17.3654 1.0543 19.1391 2.36206 20.4469C3.66983 21.7547 5.44353 22.4893 7.29298 22.4893C7.6435 22.4895 7.99358 22.4648 8.34062 22.4157C9.98284 22.1639 11.4813 21.3345 12.5666 20.0765C13.6518 18.8185 14.2525 17.2145 14.2606 15.5531V8.30103L14.5047 8.45289C14.9149 8.70594 15.3432 8.92825 15.7862 9.118C16.9203 9.5978 18.1393 9.84448 19.3706 9.84333C19.4521 9.84184 19.5297 9.8087 19.5871 9.75092C19.6446 9.69315 19.6772 9.61529 19.6782 9.53385V6.04235C19.677 5.96069 19.644 5.88272 19.5862 5.82503C19.5284 5.76734 19.4504 5.7345 19.3687 5.73351C18.0148 5.73283 16.7165 5.19509 15.7586 4.23829C14.8007 3.28148 14.2615 1.98376 14.2593 0.629865C14.2583 0.548094 14.2254 0.469954 14.1676 0.412129C14.1097 0.354303 14.0316 0.321377 13.9498 0.320379H10.4705C10.3888 0.321542 10.3109 0.354542 10.2532 0.41235C10.1955 0.470157 10.1627 0.548203 10.1617 0.629865V15.5224C10.1588 16.1242 9.9675 16.71 9.61455 17.1974C9.26159 17.6848 8.76476 18.0494 8.19389 18.2398C7.90323 18.3378 7.59842 18.3871 7.2917 18.3859C6.53636 18.3747 5.81578 18.0667 5.28561 17.5285C4.75545 16.9904 4.45827 16.2653 4.45827 15.5099C4.45827 14.7545 4.75545 14.0294 5.28561 13.4912C5.81578 12.9531 6.53636 12.6451 7.2917 12.6338C7.59862 12.6327 7.90364 12.682 8.19453 12.7799C8.24142 12.7961 8.29151 12.8007 8.34058 12.7935C8.38964 12.7862 8.43625 12.7673 8.47647 12.7383C8.51549 12.709 8.54731 12.6713 8.56952 12.6278C8.59173 12.5844 8.60373 12.5365 8.60462 12.4877V8.92705C8.60402 8.85283 8.57688 8.78128 8.5281 8.72534C8.47933 8.6694 8.41214 8.63276 8.3387 8.62205C7.99278 8.56792 7.64311 8.54136 7.29298 8.54259ZM7.29298 21.8704C5.60922 21.8704 3.99442 21.2015 2.80382 20.0109C1.61322 18.8203 0.944348 17.2055 0.944348 15.5217C0.944348 13.838 1.61322 12.2232 2.80382 11.0326C3.99442 9.84197 5.60922 9.1731 7.29298 9.1731C7.47444 9.17175 7.65583 9.18031 7.83635 9.19873L7.97924 9.21475V12.0982L7.79598 12.0719C7.62748 12.0477 7.45745 12.0357 7.28722 12.036C6.36054 12.036 5.47181 12.4041 4.81655 13.0594C4.16128 13.7147 3.79316 14.6034 3.79316 15.5301C3.79316 16.4568 4.16128 17.3455 4.81655 18.0007C5.47181 18.656 6.36054 19.0241 7.28722 19.0241C7.66151 19.0244 8.03334 18.9636 8.38804 18.8441C9.08279 18.6138 9.68761 18.171 10.117 17.5783C10.5465 16.9855 10.7788 16.2729 10.7813 15.541V0.957933H13.6551L13.6673 1.10467C13.7795 2.45996 14.3693 3.73137 15.3316 4.69234C16.2938 5.65331 17.566 6.24141 18.9215 6.35184L19.0688 6.36337V9.2218L18.8997 9.21219C17.174 9.1179 15.5176 8.50187 14.1497 7.44561C14.1041 7.41032 14.0495 7.38846 13.9921 7.3825C13.9347 7.37654 13.8767 7.38672 13.8248 7.41189C13.7729 7.43706 13.729 7.47622 13.6981 7.52497C13.6672 7.57371 13.6505 7.63011 13.65 7.68782V15.5474C13.642 17.0618 13.0938 18.5237 12.1041 19.67C11.1144 20.8163 9.74802 21.5718 8.25092 21.8005C7.93367 21.8466 7.61356 21.8701 7.29298 21.871V21.8704ZM7.29298 9.49348C5.69419 9.49348 4.16088 10.1286 3.03036 11.2591C1.89985 12.3896 1.26473 13.9229 1.26473 15.5217C1.26473 17.1205 1.89985 18.6538 3.03036 19.7844C4.16088 20.9149 5.69419 21.55 7.29298 21.55C7.59741 21.5502 7.90147 21.5288 8.20286 21.4859C9.62416 21.2687 10.9213 20.5514 11.861 19.4632C12.8007 18.3749 13.3212 16.9871 13.3289 15.5493V7.68782C13.3296 7.57023 13.3631 7.45516 13.4257 7.35561C13.4883 7.25606 13.5775 7.176 13.6832 7.12448C13.7889 7.07296 13.9069 7.05203 14.0239 7.06405C14.1409 7.07607 14.2522 7.12057 14.3452 7.19252C14.9032 7.62174 15.5133 7.9785 16.1611 8.25425C16.9835 8.60243 17.8572 8.8141 18.7478 8.88092V6.65812C17.3702 6.5116 16.0843 5.89753 15.1044 4.91818C14.1244 3.93883 13.5096 2.65332 13.3623 1.27575H11.1017V15.541C11.0992 16.2949 10.8735 17.0311 10.4529 17.6568C10.0323 18.2825 9.43573 18.7695 8.73852 19.0563C8.04132 19.3432 7.27475 19.417 6.53562 19.2684C5.7965 19.1199 5.11797 18.7556 4.58573 18.2217C4.05349 17.6878 3.69141 17.0081 3.54521 16.2685C3.39901 15.5289 3.47526 14.7626 3.76432 14.0663C4.05338 13.37 4.54229 12.775 5.1693 12.3564C5.79632 11.9378 6.53331 11.7144 7.28722 11.7143C7.41537 11.7143 7.53583 11.7201 7.65886 11.7316V9.50501C7.54929 9.49796 7.42818 9.49412 7.29298 9.49412V9.49348Z" fill="white"/>
  </g>
  <defs>
    <clipPath id="clip0_378_10">
      <rect width="20" height="22.8097" fill="white"/>
    </clipPath>
  </defs>
</svg>