<svg xmlns="http://www.w3.org/2000/svg" width="19" height="20" viewBox="0 0 19 20" fill="none">
  <path d="M17.7879 5.46774H17.7874C16.527 5.46643 15.3188 4.96464 14.4277 4.07266C13.5367 3.18069 13.0356 1.97141 13.0343 0.710197V0.709677C13.0343 0.653898 13.0121 0.60051 12.9729 0.561229C12.9337 0.521965 12.8806 0.5 12.8253 0.5H9.28065C9.2254 0.5 9.17232 0.521964 9.13309 0.561229C9.09385 0.600511 9.07171 0.6539 9.07171 0.709677V12.4194V12.4196C9.07152 12.8264 8.96229 13.2258 8.75536 13.5761C8.54842 13.9263 8.25135 14.2146 7.89508 14.4109C7.53881 14.6071 7.13642 14.7041 6.72989 14.6917C6.32336 14.6792 5.92764 14.5578 5.58403 14.3401C5.24042 14.1225 4.96152 13.8165 4.77636 13.4543C4.5912 13.092 4.50655 12.6867 4.5312 12.2806C4.55585 11.8745 4.68891 11.4825 4.91653 11.1453C5.14414 10.8082 5.45798 10.5383 5.82536 10.3639L17.7879 5.46774ZM17.7879 5.46774C17.8432 5.46774 17.8962 5.48971 17.9355 5.52897C17.9747 5.56825 17.9968 5.62164 17.9968 5.67742V9.22581C17.9968 9.28159 17.9747 9.33498 17.9355 9.37426C17.8962 9.41352 17.8432 9.43548 17.7879 9.43548L17.7867 9.43548C16.3868 9.43874 15.007 9.10177 13.7658 8.4535L13.0343 8.07146V8.89669V12.4194C13.0343 14.075 12.3773 15.6627 11.2079 16.8333C10.0386 18.0038 8.4528 18.6613 6.79937 18.6613C5.14593 18.6613 3.56011 18.0038 2.3908 16.8333C1.22147 15.6627 0.564453 14.075 0.564453 12.4194C0.564453 9.38145 2.78204 6.70088 5.69948 6.18033C5.72948 6.175 5.76028 6.17631 5.78972 6.18417L5.91881 5.70113L5.78973 6.18418C5.81917 6.19204 5.84657 6.20629 5.86999 6.22594C5.89341 6.24559 5.91228 6.27018 5.92523 6.29799C5.93819 6.32581 5.94491 6.35615 5.9449 6.38688V6.3871V10.1741V10.1743M17.7879 5.46774L5.9449 10.1743M5.9449 10.1743C5.94491 10.2141 5.93364 10.253 5.91245 10.2866C5.89128 10.3201 5.86111 10.3468 5.82548 10.3638L5.9449 10.1743ZM13.2392 7.05153L12.9464 7.45682C14.1471 8.32436 15.5596 8.85138 17.0348 8.98224L17.579 9.03051V8.48419V6.34274V5.90258L17.1424 5.84678C16.0036 5.70123 14.9453 5.18138 14.1335 4.36868C13.3216 3.55596 12.8021 2.49637 12.6567 1.35609L12.601 0.919355H12.1607H9.98959H9.48959V1.41935V12.4194V12.4194C9.48963 12.8849 9.3692 13.3424 9.14008 13.7473C8.91097 14.1522 8.58099 14.4908 8.18237 14.73C7.78374 14.9692 7.33005 15.1009 6.86551 15.1124C6.40097 15.1238 5.94136 15.0146 5.53148 14.7953C5.1216 14.576 4.7754 14.2541 4.52668 13.8609C4.27796 13.4678 4.13521 13.0168 4.11239 12.5519C4.08957 12.087 4.18746 11.6241 4.39649 11.2084C4.60553 10.7927 4.91855 10.4384 5.305 10.1799L5.52702 10.0314V9.76427V7.30968V6.59628L4.85643 6.83968C2.58814 7.66298 0.982329 9.91189 0.982329 12.4194C0.982329 13.9634 1.59507 15.4444 2.68592 16.5364C3.77678 17.6284 5.25642 18.2419 6.79937 18.2419C8.34231 18.2419 9.82195 17.6284 10.9128 16.5364C12.0037 15.4444 12.6164 13.9634 12.6164 12.4194L12.6164 7.62903L12.6164 7.62812C12.6163 7.5894 12.6269 7.55145 12.647 7.51846C12.6671 7.48546 12.6959 7.45873 12.73 7.44115C12.7642 7.42356 12.8026 7.41579 12.8408 7.41864C12.8791 7.42149 12.9159 7.43487 12.9471 7.45736L13.2392 7.05153ZM13.2392 7.05153C13.1332 6.97524 13.0082 6.92973 12.878 6.92003C12.7478 6.91032 12.6175 6.93679 12.5013 6.99651C12.3852 7.05624 12.2878 7.14691 12.2199 7.25852M13.2392 7.05153C14.2305 7.76776 15.3755 8.23686 16.579 8.42335V8.48419H17.079L17.1231 7.98615C17.1084 7.98484 17.0937 7.98349 17.079 7.98209V6.34274C15.8303 6.18314 14.6698 5.6131 13.7797 4.72205C12.8896 3.83099 12.3201 2.66935 12.1607 1.41935H10.4896H9.98959V1.91935L12.2199 7.25852M12.2199 7.25852C12.152 7.37013 12.1162 7.49834 12.1164 7.62903L12.2199 7.25852Z" stroke="#FFFEFF"/>
</svg>