<svg width="14" height="16" viewBox="0 0 14 16" fill="none" xmlns="http://www.w3.org/2000/svg">
<path d="M11.9598 2.18399C11.3148 1.48897 10.5466 0.937914 9.69985 0.562954C8.85313 0.187994 7.94491 -0.0033623 7.02814 4.47067e-05C3.18693 4.47067e-05 0.0562815 3.33975 0.0562815 7.43745C0.0562815 8.75082 0.3799 10.0267 0.984925 11.1524L0 15.0099L3.69347 13.9743C4.71357 14.5672 5.8603 14.8824 7.02814 14.8824C10.8693 14.8824 14 11.5427 14 7.44495C14 5.45614 13.2754 3.58741 11.9598 2.18399ZM7.02814 13.6215C5.98693 13.6215 4.96683 13.3213 4.07337 12.7585L3.86231 12.6234L1.66734 13.2388L2.25126 10.9573L2.11055 10.7246C1.53208 9.73919 1.22492 8.60015 1.22412 7.43745C1.22412 4.0302 3.82713 1.25337 7.0211 1.25337C8.56884 1.25337 10.0251 1.8988 11.1156 3.06957C11.6555 3.64292 12.0834 4.32489 12.3744 5.07596C12.6655 5.82703 12.8139 6.63225 12.8111 7.44495C12.8251 10.8522 10.2221 13.6215 7.02814 13.6215ZM10.208 8.99848C10.0322 8.90842 9.17387 8.45812 9.01909 8.39058C8.85729 8.33054 8.74472 8.30052 8.62512 8.48064C8.50553 8.66826 8.17487 9.08854 8.07638 9.20862C7.97789 9.3362 7.87236 9.35121 7.69648 9.25365C7.5206 9.16359 6.95779 8.96096 6.29648 8.33054C5.77588 7.83521 5.43116 7.22731 5.32563 7.03969C5.22714 6.85206 5.31156 6.7545 5.40301 6.65694C5.4804 6.57438 5.57889 6.43929 5.66332 6.33422C5.74774 6.22915 5.78291 6.1466 5.8392 6.02652C5.89548 5.89893 5.86734 5.79387 5.82512 5.70381C5.78291 5.61375 5.43115 4.69814 5.29045 4.3229C5.14975 3.96266 5.00201 4.00769 4.89648 4.00018H4.55879C4.4392 4.00018 4.25628 4.04521 4.09447 4.23284C3.9397 4.42046 3.48945 4.87076 3.48945 5.78636C3.48945 6.70197 4.11558 7.58755 4.2 7.70763C4.28442 7.83521 5.43116 9.71145 7.17588 10.5145C7.59095 10.7096 7.91457 10.8222 8.16784 10.9047C8.58291 11.0473 8.96281 11.0248 9.26533 10.9798C9.60301 10.9273 10.2995 10.5295 10.4402 10.0942C10.5879 9.65891 10.5879 9.29117 10.5387 9.20862C10.4894 9.12606 10.3839 9.08854 10.208 8.99848Z" stroke="#FFFEFF"/>
</svg>
