<svg xmlns="http://www.w3.org/2000/svg" width="21" height="19" viewBox="0 0 21 19">
  <path d="M17.6995 16.2352C17.7728 16.1777 17.8329 16.1071 17.8763 16.0276C17.9197 15.9481 17.9454 15.8612 17.952 15.7723C17.9587 15.6833 17.946 15.594 17.9147 15.5097C17.8835 15.4253 17.8344 15.3477 17.7703 15.2814C17.7062 15.2151 17.6284 15.1615 17.5416 15.1237C17.4548 15.086 17.3607 15.0648 17.2649 15.0616C17.1691 15.0583 17.0736 15.073 16.9841 15.1048C16.8945 15.1366 16.8127 15.1848 16.7436 15.2466L17.6995 16.2352ZM15.2924 5.65478C15.2924 5.47834 15.217 5.30913 15.083 5.18437C14.9489 5.0596 14.767 4.98951 14.5774 4.98951C14.3878 4.98951 14.206 5.0596 14.0719 5.18437C13.9379 5.30913 13.8625 5.47834 13.8625 5.65478H15.2924ZM13.8625 9.31374C13.8625 10.1959 13.4859 11.042 12.8156 11.6658C12.1452 12.2896 11.236 12.6401 10.288 12.6401V13.9706C11.6152 13.9706 12.8881 13.48 13.8266 12.6066C14.7651 11.7333 15.2924 10.5488 15.2924 9.31374H13.8625ZM10.288 12.6401C9.33994 12.6401 8.43074 12.2896 7.76038 11.6658C7.09002 11.042 6.71342 10.1959 6.71342 9.31374H5.2836C5.2836 10.5488 5.81084 11.7333 6.74935 12.6066C7.68785 13.48 8.96073 13.9706 10.288 13.9706V12.6401ZM6.71342 9.31374C6.71342 8.43154 7.09002 7.58548 7.76038 6.96167C8.43074 6.33786 9.33994 5.98741 10.288 5.98741V4.65688C8.96073 4.65688 7.68785 5.14751 6.74935 6.02084C5.81084 6.89417 5.2836 8.07866 5.2836 9.31374H6.71342ZM10.288 5.98741C11.236 5.98741 12.1452 6.33786 12.8156 6.96167C13.4859 7.58548 13.8625 8.43154 13.8625 9.31374H15.2924C15.2924 8.07866 14.7651 6.89417 13.8266 6.02084C12.8881 5.14751 11.6152 4.65688 10.288 4.65688V5.98741ZM20.7664 7.26406C20.241 5.01147 18.7454 2.96445 16.6721 1.63791L15.8621 2.73493C17.643 3.87386 18.9227 5.63283 19.3688 7.54613L20.7664 7.26406ZM16.6721 1.63791C14.5964 0.31046 12.0592 -0.23995 9.56663 0.0964867L9.77181 1.41371C11.9082 1.12536 14.083 1.59714 15.8621 2.73493L16.6721 1.63791ZM9.56663 0.0964867C7.0744 0.433029 4.80938 1.6308 3.22465 3.45209L4.33563 4.28965C5.6942 2.72846 7.63535 1.70195 9.77181 1.41371L9.56663 0.0964867ZM3.22465 3.45209C1.6397 5.27342 0.850884 7.58451 1.01558 9.92312L2.44254 9.83597C2.30118 7.8314 2.97716 5.85093 4.33563 4.28965L3.22465 3.45209ZM1.01558 9.92312C1.18022 12.2618 2.28635 14.4568 4.11329 16.0702L5.09772 15.1049C3.53177 13.722 2.58366 11.8406 2.44254 9.83597L1.01558 9.92312ZM4.11329 16.0702C5.94029 17.6833 8.35371 18.5963 10.8721 18.6268L10.8906 17.2963C8.73217 17.27 6.66365 16.4875 5.09772 15.1049L4.11329 16.0702ZM10.8721 18.6268C13.3901 18.6572 15.828 17.8033 17.6995 16.2352L16.7436 15.2466C15.1393 16.5908 13.0493 17.3227 10.8906 17.2963L10.8721 18.6268ZM13.8625 5.65478V11.6608H15.2924V5.65478H13.8625ZM14.1885 12.6367C14.5746 13.1164 15.4918 13.9706 17.0796 13.9706V12.6401C16.7408 12.646 16.4055 12.5764 16.1015 12.437C15.7975 12.2977 15.5338 12.0926 15.3324 11.8391L14.1885 12.6367ZM13.8625 11.6608C13.8625 11.9595 13.934 12.3214 14.1885 12.6381L15.3324 11.8391C15.321 11.8244 15.2924 11.7752 15.2924 11.6608H13.8625ZM17.0796 13.9706C18.0498 13.9706 18.8419 13.6779 19.4488 13.1723C20.0422 12.6773 20.4168 12.0167 20.6449 11.3335C21.0967 9.98033 21.0274 8.3837 20.7664 7.26406L19.3688 7.54613C19.5933 8.50877 19.639 9.86258 19.2794 10.939C19.1021 11.4712 18.839 11.8943 18.4952 12.1804C18.1649 12.4558 17.718 12.6401 17.0796 12.6401V13.9706Z" fill="#FFFEFF"/>
</svg>