<svg class="svg-icon" fill="#fff" viewBox="0 0 1024 1024" version="1.1" xmlns="http://www.w3.org/2000/svg"><path d="M421.4 295.2c15-15 39.6-15 54.6 0l190.8 191.4c14.6 14.6 15 38.2 1.2 53.2l-188 188.6c-7.6 7.6-17.4 11.4-27.4 11.4-9.8 0-19.8-3.8-27.2-11.2-15-15-15.2-39.4 0-54.6l159.8-162.2-163.8-162.2c-15.2-14.8-15.2-39.2 0-54.4z"  /><path d="M96 512c0 229.8 186.2 416 416 416s416-186.2 416-416S741.8 96 512 96 96 282.2 96 512z m64 0c0-94 36.6-182.4 103.2-248.8C329.6 196.6 418 160 512 160s182.4 36.6 248.8 103.2C827.4 329.6 864 418 864 512s-36.6 182.4-103.2 248.8C694.4 827.4 606 864 512 864s-182.4-36.6-248.8-103.2C196.6 694.4 160 606 160 512z"  /></svg>