<svg xmlns="http://www.w3.org/2000/svg" width="21" height="20" viewBox="0 0 21 20" fill="none">
  <path fill-rule="evenodd" clip-rule="evenodd" d="M20.9927 9.48917C20.9166 6.94096 19.8486 4.52315 18.0162 2.75073C16.1838 0.978316 13.7318 -0.00862779 11.1825 0.000117822C8.66031 -0.0122496 6.23071 0.949427 4.40028 2.68466C2.56985 4.4199 1.47989 6.79473 1.35766 9.31397C1.35766 9.45266 1.35766 9.59865 1.35766 9.73734C1.35437 11.5129 1.83918 13.2552 2.75912 14.7738L0.992701 20.0001L6.43066 18.2702C7.88432 19.0686 9.51668 19.4855 11.1752 19.4818C12.4599 19.4876 13.7332 19.24 14.9221 18.7533C16.1111 18.2665 17.1924 17.5501 18.1043 16.6451C19.0161 15.74 19.7405 14.664 20.2362 13.4788C20.7318 12.2935 20.9889 11.0221 20.9927 9.73734C21 9.65705 21 9.57676 20.9927 9.48917ZM11.1825 17.9417C9.56838 17.9465 7.98886 17.4741 6.64234 16.5841L3.46715 17.5913L4.49635 14.5476C3.47556 13.1543 2.92579 11.4718 2.92701 9.74463C2.92701 9.48185 2.92701 9.21179 2.92701 8.95631C3.13677 6.92367 4.09359 5.04125 5.61207 3.67381C7.13054 2.30638 9.10255 1.55128 11.146 1.55484C13.2148 1.55301 15.2087 2.32868 16.7324 3.72801C18.2561 5.12734 19.1983 7.04814 19.3723 9.10959C19.3723 9.32127 19.3723 9.53295 19.3723 9.74463C19.3608 11.9138 18.4945 13.991 16.9613 15.5256C15.4281 17.0601 13.3517 17.9283 11.1825 17.9417Z" fill="white"/>
  <path fill-rule="evenodd" clip-rule="evenodd" d="M15.6788 11.708C15.438 11.5912 14.219 10.9781 14.0365 10.9343C13.854 10.8905 13.6496 10.8102 13.4891 11.0511C13.3285 11.2919 12.8686 11.8248 12.7591 11.9854C12.6496 12.146 12.4818 12.1606 12.2336 12.0438C11.5223 11.7672 10.8669 11.3641 10.2993 10.854C9.7725 10.3754 9.32203 9.81913 8.96351 9.20435C8.82482 8.97077 8.9635 8.83938 9.06569 8.7226C9.16788 8.60581 9.30657 8.43793 9.43066 8.29925L9.51825 8.18976C9.57665 8.10217 9.61314 8.01457 9.67154 7.90508C9.70605 7.83986 9.72409 7.76718 9.72409 7.6934C9.72409 7.61961 9.70605 7.54695 9.67154 7.48173C9.61314 7.36494 9.13139 6.18975 8.94161 5.70799C8.75183 5.22624 8.54015 5.31385 8.40146 5.31385C8.26278 5.31385 8.10219 5.31385 7.94161 5.31385C7.8196 5.31624 7.69944 5.34409 7.58883 5.39562C7.47821 5.44716 7.37959 5.52122 7.29927 5.6131C7.02857 5.86869 6.8141 6.17791 6.66957 6.52101C6.52504 6.86411 6.45362 7.23356 6.45986 7.60581C6.46429 7.88265 6.50603 8.15763 6.58395 8.42332C6.77163 9.01822 7.06054 9.57629 7.43796 10.073C7.56205 10.2335 9.10219 12.7226 11.5474 13.6861C13.9927 14.6496 14 14.3138 14.4672 14.2774C14.804 14.2147 15.1235 14.0806 15.4043 13.8842C15.685 13.6878 15.9205 13.4336 16.0949 13.1387C16.2495 12.7829 16.2976 12.3899 16.2336 12.0073C16.0803 11.8905 15.9562 11.8248 15.6788 11.708Z" fill="white"/>
</svg>