<svg width="63" height="63" viewBox="0 0 63 63" fill="none" xmlns="http://www.w3.org/2000/svg">
<g clip-path="url(#clip0_447_674)">
<path d="M33.9458 55.779C32.3536 56.2285 30.6951 56.3868 29.0481 56.2466C27.3775 56.1031 25.7295 55.7594 24.1387 55.2226C22.5177 54.687 20.9686 53.9494 19.5268 53.0268C18.058 52.0656 16.7329 50.8956 15.5923 49.5524C15.0333 48.8694 14.5424 48.1318 14.127 47.3505C13.694 46.5844 13.3042 45.7939 12.9595 44.983C12.2727 43.3508 11.8036 41.6331 11.5643 39.8751C11.0693 36.3489 11.4877 32.7528 12.7785 29.4402V29.3869V29.3396L14.0395 26.7116L14.0746 26.6406L14.1153 26.5814L22.1013 13.4949L23.2046 11.7192L24.4889 13.3942L32.7025 24.0481H30.3966L38.4293 13.6015L39.696 11.956L40.8109 13.7317L48.6042 25.9954L48.651 26.0724L48.6859 26.1493L49.8534 28.6057L50.4372 29.8308L50.5073 29.9847L50.5424 30.0617V30.0972L50.5832 30.1978V30.2274L50.7059 30.6062C50.7818 30.8312 50.8517 31.0679 50.9218 31.2987C51.1826 32.2325 51.3777 33.1839 51.5055 34.1457C51.6435 35.108 51.7118 36.0794 51.7099 37.0518H48.7911V36.4126H51.7099C51.7095 39.5188 50.8009 42.5552 49.0988 45.1379C47.3967 47.7207 44.9776 49.7338 42.1473 50.9228C39.317 52.1118 36.2026 52.4234 33.1977 51.8181C30.1928 51.2129 27.4324 49.7179 25.2653 47.5222C23.9267 46.0246 22.8987 44.2694 22.2429 42.3608C21.587 40.4522 21.3165 38.4293 21.4475 36.4126L21.4942 35.7734L22.0078 35.6786C22.7782 35.5398 23.5625 35.4981 24.3429 35.5544C25.1055 35.6024 25.86 35.7415 26.5905 35.9687C28.0338 36.4338 29.3562 37.2205 30.4608 38.2711C31.5273 39.2965 32.4154 40.4972 33.0877 41.8224C33.7541 43.12 34.2732 44.4901 34.6348 45.9064C34.1284 44.5568 33.4826 43.2652 32.7083 42.0532C31.9568 40.8573 31.0114 39.7987 29.9121 38.9221C28.8384 38.0782 27.5948 37.4841 26.2694 37.182C25.6177 37.0316 24.9528 36.9483 24.2846 36.9334C23.6397 36.9141 22.9953 36.9858 22.3699 37.1465L22.9536 36.4126C23.0826 38.1541 23.5465 39.8533 24.3195 41.414C25.0791 42.9263 26.1084 44.2829 27.3552 45.4152C29.1118 47.1969 31.3499 48.4104 33.7868 48.9024C36.2236 49.3943 38.7496 49.1426 41.0454 48.179C43.3411 47.2154 45.3034 45.5831 46.6842 43.4887C48.065 41.3943 48.8023 38.9318 48.8028 36.4126H51.7216V37.0518H48.8028C48.803 36.2181 48.7444 35.3853 48.6276 34.56C48.5148 33.7375 48.3431 32.9245 48.1138 32.1273C48.0215 31.7595 47.8965 31.401 47.7403 31.0561L47.1565 29.8723L45.989 27.4692L46.0707 27.6172L38.2833 15.3534L40.6591 15.46L32.6265 25.9126L31.459 27.4041L30.2915 25.9126L22.078 15.2587L24.4713 15.1285L16.4854 28.215L16.5556 28.0848L15.2887 30.7127L15.3354 30.6062C14.2301 33.4414 13.8719 36.5196 14.2963 39.5377C14.7021 42.5641 15.8993 45.4252 17.7639 47.8241C18.5879 49.1008 19.582 50.2561 20.7177 51.257C21.9091 52.2601 23.2097 53.1219 24.594 53.8258C25.9953 54.5621 27.479 55.1245 29.013 55.5008C30.6264 55.9007 32.2987 55.9951 33.9458 55.779Z" fill="white"/>
<path d="M6.9527 49.6293C2.32465 44.0381 -0.143825 36.9333 0.00594816 29.6355C0.0407668 28.7151 0.146186 27.7989 0.321205 26.8951C0.408769 26.4453 0.484636 25.9895 0.589714 25.5397L0.916657 24.202L1.24937 22.8643C1.34861 22.4145 1.54125 21.9943 1.68135 21.5563L2.14839 20.2601L2.37607 19.609C2.46947 19.4018 2.56871 19.1947 2.66795 19.0171C4.12107 15.6326 6.16595 12.5426 8.704 9.89624C13.7822 4.538 20.5294 1.12169 27.8049 0.224821C31.4208 -0.177568 35.0776 0.0405868 38.622 0.870025L39.9413 1.20737C40.384 1.30305 40.8191 1.43165 41.2431 1.5921C42.0954 1.91172 42.9594 2.18398 43.8001 2.54503L46.2577 3.72879C47.0633 4.15495 47.8222 4.66989 48.5928 5.13748C53.1959 8.14756 56.9461 12.3218 59.4737 17.2488C62.0012 22.1759 63.219 27.6856 63.0069 33.2351C62.7948 38.7846 61.16 44.1823 58.264 48.8963C55.3679 53.6102 51.3103 57.4776 46.4911 60.1175C43.2162 61.6536 39.7017 62.5971 36.1061 62.9052L34.7751 63.0236H33.4441C32.5626 63.0424 31.6809 62.9989 30.8054 62.8934L29.4978 62.7336C29.0612 62.6954 28.628 62.6241 28.2019 62.5205L25.6566 61.9286C32.4386 62.698 39.2798 61.1503 45.096 57.5309C49.4708 55.1367 53.1546 51.6277 55.7842 47.35C58.4139 43.0723 59.8986 38.1736 60.0919 33.1369C60.2852 28.1001 59.1804 23.0993 56.8865 18.6274C54.5926 14.1555 51.1889 10.3669 47.0108 7.6352C46.2986 7.20905 45.6155 6.74151 44.8858 6.35679L42.6618 5.2736C41.8912 4.97174 41.1089 4.68174 40.3267 4.4154C39.9468 4.26772 39.5565 4.14903 39.1592 4.06028L37.9507 3.73472C34.7357 2.97972 31.4182 2.77962 28.1376 3.14283C21.5333 3.95523 15.4085 7.05597 10.7998 11.9204C8.49515 14.3239 6.63992 17.1316 5.32412 20.2068C5.23655 20.3962 5.14304 20.5856 5.06131 20.7987L4.85123 21.3906L4.43094 22.5743C4.30251 22.9709 4.12728 23.3497 4.03388 23.7581L3.73615 24.9418L3.43842 26.1612C3.33334 26.5636 3.28671 26.9839 3.21666 27.3923L2.93062 29.8782C2.04544 36.7331 3.4622 43.6905 6.9527 49.6293Z" fill="white"/>
</g>
<defs>
<clipPath id="clip0_447_674">
<rect width="63" height="63" fill="white"/>
</clipPath>
</defs>
</svg>
