<svg xmlns="http://www.w3.org/2000/svg" width="60" height="60" viewBox="0 0 60 60" fill="none">
  <g clip-path="url(#clip0_18_391)">
    <path d="M21.5871 13.9943C21.5694 14.0389 17.2455 22.9747 14.5944 28.4111L14.6357 28.3159C9.27738 41.5127 23.124 54.9743 36.1844 50.8144C26.0529 55.8283 13.0457 49.5349 11.1541 38.18C9.38082 31.473 13.1964 24.8106 16.0751 19.0737C16.8258 17.5859 18.4543 14.1312 19.1754 12.6791C19.3675 12.3239 19.6464 12.0238 19.9856 11.8072C20.3249 11.5906 20.7134 11.4646 21.1144 11.441C21.5155 11.4175 21.9159 11.4973 22.2778 11.6727C22.6397 11.8482 22.9513 12.1137 23.1831 12.444C23.254 12.4857 27.5277 20.8739 27.5986 20.9364L27.4656 20.7311C28.4025 21.3857 29.6705 21.109 30.7167 20.9959C30.6057 20.9869 30.4939 20.996 30.3857 21.0227C30.5375 20.9577 30.6821 20.8769 30.8172 20.7816C30.758 20.8357 30.7054 20.8966 30.6606 20.9632C31.6802 19.3444 33.7639 16.2022 34.819 14.5507C35.5963 13.417 36.5154 11.343 38.209 11.5751C40.3724 11.4323 41.3477 15.6547 42.2344 16.9967C43.2186 19.0796 46.6263 25.9949 47.5543 27.9707C48.2726 30.0143 48.6559 32.162 48.6892 34.3296H45.9554V33.7344H48.6892C48.3139 53.183 19.004 53.0758 20.3635 33.0709C23.9279 32.6632 27.6016 34.7253 28.9641 38.0996C27.3563 35.4573 24.1791 33.8892 21.1231 34.4367L21.7319 33.7315C23.1861 49.0528 45.2342 49.6985 45.9347 33.7315H48.6892V34.3266H45.9554C45.956 32.4973 45.6564 30.6806 45.0687 28.9497L45.0894 29.0032C45.0894 28.994 45.0873 28.9849 45.0832 28.9766C45.0791 28.9684 45.0731 28.9612 45.0658 28.9556C43.1417 24.9802 38.3449 14.271 38.3597 14.1966C36.7814 16.6366 34.5175 20.0705 32.9659 22.5283C32.6729 22.8875 32.3092 23.1816 31.8976 23.3921C31.4861 23.6026 31.0357 23.7249 30.5748 23.7513L30.9709 23.7186C29.0468 24.1143 26.5819 24.0161 25.2726 22.3409" fill="white"/>
    <path d="M5.76029 47.05C-15.7766 15.1218 28.2222 -17.711 53.1225 11.0631C70.1108 31.6304 53.4565 63.4723 26.8006 59.6903C67.708 60.6485 67.1553 -0.053769 25.9317 3.11524C5.57114 5.46597 -5.21946 29.9046 5.76029 47.05Z" fill="white"/>
  </g>
  <defs>
    <clipPath id="clip0_18_391">
      <rect width="60" height="60" fill="white"/>
    </clipPath>
  </defs>
</svg>