<svg id="Слой_1" data-name="Слой 1" xmlns="http://www.w3.org/2000/svg" viewBox="0 0 60.07 58.72"><defs><style>.cls-1,.cls-2{fill:#a6a6a6;stroke:#a6a6a6;stroke-miterlimit:10;}.cls-1{stroke-width:0.24px;}.cls-2{stroke-width:0.46px;}</style></defs><path class="cls-1" d="M221.84,120.38l.18.52,0,.09.05.5-.2,0-.25-1.1Zm2.66.94.12.53-2.28,1.72-.19-.88,1.87-1.34.23.15-2.48-.47-.07-.31Zm-2.27.83.19.57.08.34.09.67-.2,0L222,122.2Zm.57-1,.31,1.38-.2.17-.35-1.59Z" transform="translate(-165.37 -98.95)"/><path class="cls-1" d="M222.87,125.93l0,.76h-.21l-.09-1.69h.21l.1.76Zm1.07-.59c.41,0,.82,0,1.22-.08l.05.9-1.23,0h-.12c-.42,0-.84,0-1.24.08l-.05-.9c.4,0,.81,0,1.23-.05Zm.07.45,0,.62c0,.52.27.67.52.65s.46-.25.44-.68l0-.65h.23l0,.86c.05.83-.17,1.3-.58,1.32s-.63-.27-.72-1.19h0c0,.83-.17,1-.59,1.16l-.6.17.18-.44,0,.79h-.22a2.9,2.9,0,0,1-.08-.57c0-.45.06-.72.36-.78l.45-.12a.43.43,0,0,0,.36-.52l0-.61Zm.92-.9h.21l.05.84h-.27v-.08Z" transform="translate(-165.37 -98.95)"/><path class="cls-1" d="M222.8,131l-.14.78-.21,0,.18-1.79.21,0,0,.78Zm1.15-.44,1.22.11-.09.91c-.4-.06-.81-.1-1.22-.14l-.14,0-1.23-.11.1-.91c.39.06.8.1,1.21.14Zm1.09-.82.18.4-.72-.21.05-.43.73.09-.31,3.07-.74-.06.05-.43.74-.07-.26.35Z" transform="translate(-165.37 -98.95)"/><path class="cls-1" d="M222.71,136.93a.86.86,0,0,1,.7-.08c.36.13.46.58.25,1.14s-.49.79-.78.69-.36-.41-.33-1l.13-.09a.85.85,0,0,0,.44.6c.17.06.32,0,.39-.23a.32.32,0,0,0-.16-.44.53.53,0,0,0-.43,0,8.31,8.31,0,0,0-.81.45l-1.27.79.26-.32-.37.69-.25-.14a2.62,2.62,0,0,1,.12-.5,1.32,1.32,0,0,1,.46-.66,5.9,5.9,0,0,1,.85-.49Zm-.54-.25c-.3-.11-.6.12-.74.5a1,1,0,0,0,0,.66l-.15.1a1.38,1.38,0,0,1,0-1.21c.24-.66.66-.91,1-.78s.47.47.41,1.21l-.11.05A.6.6,0,0,0,222.17,136.68Zm0,2.22-.14.39a2.66,2.66,0,0,1-.75-1l.16-.14A1.93,1.93,0,0,0,222.19,138.9Zm-.15,0,.24-.47.16.06-.39,1.09-.16-.06.11-.52Z" transform="translate(-165.37 -98.95)"/><path class="cls-1" d="M218.58,143l-.35.52a.94.94,0,0,0,.34,1.41.93.93,0,0,0,1.42-.2l.36-.53.18.13-.4.59c-.63.93-1.41,1.21-2.07.77s-.66-1.35,0-2.3l.35-.51Zm1.19.28c.34.23.68.46,1,.67l-.51.76c-.32-.24-.66-.47-1-.7l-.1-.07c-.35-.24-.69-.47-1-.69l.52-.75,1,.7Zm-1.16-.25-.22-.15.47-.7.18.11-.38.67Zm2.22.48.18.12-.48.7-.22-.15.05-.07Z" transform="translate(-165.37 -98.95)"/><path class="cls-1" d="M215.74,146.79l-.56.54-.16-.14,1.13-1.26.16.14-.47.61Zm1.16.36.92.8-.61.68-.9-.83-.11-.09c-.3-.28-.61-.55-.92-.81l.61-.68c.29.28.59.55.9.83Zm1,.37.16.14-1.14,1.27-.15-.15.47-.61.11-.12Z" transform="translate(-165.37 -98.95)"/><path class="cls-1" d="M213.11,149.68c.14.16.3.15.61,0l.22-.09c.61-.24,1-.3,1.32,0s.11.91-.49,1.43a2.65,2.65,0,0,1-.88.5l-.33-.45.36-.32.49.37-.4.19-.13-.15a1.32,1.32,0,0,0,.72-.31c.23-.19.32-.46.18-.62s-.33-.14-.64,0l-.24.1c-.66.26-1,.28-1.27,0s-.16-.91.52-1.49a2.89,2.89,0,0,1,1-.59l.36.46-.37.32-.53-.39.38-.19.12.14a2.23,2.23,0,0,0-.81.42C213,149.27,213,149.52,213.11,149.68Z" transform="translate(-165.37 -98.95)"/><path class="cls-1" d="M210.44,151.34l-.68.38-.11-.18,1.41-.94.12.18-.61.47Zm1,.63c.22.34.45.68.69,1l-.76.5c-.21-.34-.44-.68-.67-1l-.08-.12c-.22-.34-.45-.69-.69-1l.77-.5c.2.34.43.68.66,1Zm.9.62.11.17-1.41.94-.12-.17.62-.48.13-.09Z" transform="translate(-165.37 -98.95)"/><path class="cls-1" d="M205.9,153.67a2.8,2.8,0,0,1,1-.72c1-.47,1.87-.33,2.24.44s0,1.53-1.1,2.05a2.78,2.78,0,0,1-1,.28l-.28-.55.36-.17.44.48-.35.11-.09-.19a1.3,1.3,0,0,0,.73-.12,1.15,1.15,0,0,0-1-2.06,1.42,1.42,0,0,0-.48.38l.25-.4.13.27.43.84-.79.38c-.12-.29-.26-.58-.4-.87Zm1.58.24.1.2-1.45.69-.09-.19.53-.32.31-.15Z" transform="translate(-165.37 -98.95)"/><path class="cls-1" d="M204.86,156.54l-.32,0,.56-.12.06.21-1.15.31-2.33-1.38-.17-.64.43-.12Zm-2.34.78-.33.09-.68-2.51.39.16Zm.58-.15-1.34.36,0-.2.5-.2.14,0,.7-.13Zm1.43-2.86-.52.2-.15,0-.66.12-.06-.2,1.34-.37Zm.2,2.41-.38-.11-.63-2.3.33-.09Z" transform="translate(-165.37 -98.95)"/><path class="cls-1" d="M167.85,140l-.35-.75.19-.09.37.65,0,.07Zm1.5-.23-1.32.61-.37-.8c.37-.15.74-.33,1.11-.51l.13-.06c.38-.17.75-.35,1.1-.54l.39.83Zm-.19,3-.38-.81,1.33-1.68.08.16-2.12,0-.15-.31,2.86,0,.18.37Zm0,0-.12-.27,1.21-.63,1.11-.52.15.31Zm.2.41-.32-.67.24-.13,0,.08.23.63Zm1-3.47-.34-.58-.1-.22-.27-.72.19-.09.71,1.52Zm1.18,2.49-.31-.52-.07-.14-.16-.49.19-.09.55,1.15Z" transform="translate(-165.37 -98.95)"/><path class="cls-1" d="M166.55,136.19l-.13-.52,2.22-1.8.23.87-1.83,1.4-.25-.14,2.51.39.08.3Zm1.71.14L167.9,135l.2-.17.41,1.57Zm.54-1.05-.21-.56-.09-.34-.11-.66.19-.06.41,1.57Zm.45,1.76-.2-.51,0-.09-.07-.5.21-.05.28,1.09Z" transform="translate(-165.37 -98.95)"/><path class="cls-1" d="M165.87,130.65v.5l-.21,0-.12-1.08.21,0,.11.46Zm1.62,1.18-1.61,1.32-.11-1,1.27-1,0,.16-1.48-.7,0-.35,1.86.95Zm-1.38,1.44-.21,0-.19-1.69.21,0,.13.66,0,.22Zm1-1.29-.1-.87,1.22-.15.1.91C168,131.89,167.73,131.92,167.13,132Zm.88-.65,0-.79.21,0,.2,1.78-.21,0-.15-.77Z" transform="translate(-165.37 -98.95)"/><path class="cls-1" d="M165.71,128.57h-.21l.08-1.7.21,0,0,.66v.23Zm1.6-1.21-1.81,1,.05-1,1.42-.76v.17l-1.35-.92,0-.35,1.69,1.22Zm-1.41-1.42-.08.49h-.22l.06-1.08h.21l0,.47Zm1,1.51,0-.88,1.22.05,0,.91Zm1-.5.1-.79h.21l-.09,1.8h-.22l0-.78Z" transform="translate(-165.37 -98.95)"/><path class="cls-1" d="M166,122.93l.11-.54,2.77-.66-.17.89-2.25.47-.16-.23,2.09,1.43-.06.3Zm1.48.86.27-1.39.25-.07-.31,1.59Zm.58,1.06.05-.54v-.09l.16-.48.21,0-.22,1.11Zm.36-1.78,0-.59.07-.34.19-.66.2,0-.31,1.59Z" transform="translate(-165.37 -98.95)"/><path class="cls-1" d="M167.94,117l.23-.22-.28.49-.19-.09.52-1.07,2.57-.85.59.28-.19.4Zm-.05-.22.34-.21,2.15,1-.15.3Zm.74-1.52.6-1.25.19.09-.18.51-.06.13-.36.61Zm.26-.54.15-.31,2.34,1.13-.37.2Zm1,3.5.18-.53.07-.13.35-.59.19.09-.6,1.25Z" transform="translate(-165.37 -98.95)"/><path class="cls-1" d="M170.8,111.58l.31-.44,2.8.53-.52.74-2.24-.5-.05-.27,1.31,2.16-.18.25Zm1,1.39.82-1.15.25,0-.94,1.33Zm.09,1.21.26-.48.06-.07.33-.38.18.13-.66.92Zm1.05-1.48.3-.52.2-.28.44-.52.17.12-.94,1.32Z" transform="translate(-165.37 -98.95)"/><path class="cls-1" d="M173.53,109.27l-.5-.55,1.53-1.54.16.16-1.4,1.41.11-.43.39.66Zm1.33-2.39.13.12.41,3-.58.6-.13-.13-.42-3Zm1.36,1.27.5.54-1.61,1.63-.16-.16,1.48-1.5-.11.44-.39-.65Z" transform="translate(-165.37 -98.95)"/><path class="cls-1" d="M176.31,105.92l-.13-.17,1.34-1,.13.17-.58.52-.12.1Zm.94.55c-.25-.32-.5-.65-.76-1l.72-.56c.23.33.48.65.73,1l.09.12c.25.32.5.65.76,1l-.72.56c-.23-.33-.48-.65-.73-1Zm1.07.56.66-.42.12.16-1.34,1-.13-.17.57-.51Z" transform="translate(-165.37 -98.95)"/><path class="cls-1" d="M178.91,103.68l.66-.35.13.23-.07,0-.62.27Zm.4-.22.27-.14.68,1.19.58,1.08-.3.16Zm0,0,.79-.42,1.74,1.24-.16.09-.12-2.12.3-.17.17,2.87-.36.19Zm.65,2.36.52-.35.13-.07.48-.19.1.19-1.12.6Zm2.34-2.32-.67-1.29.77-.42c.18.37.37.73.57,1.09l.07.13c.19.36.39.72.59,1.07l-.8.43C182.68,104.14,182.48,103.78,182.33,103.49ZM182,102l.73-.39.1.18-.63.41-.07,0Zm.4,2.5.56-.38.21-.11.7-.31.1.19-1.47.79Z" transform="translate(-165.37 -98.95)"/><path class="cls-1" d="M188,101.21a1.7,1.7,0,1,1-2-.81A1.47,1.47,0,0,1,188,101.21Zm-1.26,1.59c.5-.16.56-.69.37-1.31s-.54-1-1-.88-.56.69-.37,1.31S186.27,103,186.78,102.8Z" transform="translate(-165.37 -98.95)"/><path class="cls-1" d="M189.89,99.83l-.76,0,0-.21,1.68-.22,0,.2-.74.17Zm-.6-.19.94-.13,1.13,1.87-.14.11.67-2.19.33,0-.86,2.74-.51.07Zm2.66-.08h-.56l0-.2,1.13-.15,0,.21-.49.12Z" transform="translate(-165.37 -98.95)"/><path class="cls-1" d="M193.29,101.56l.54,0h.09l.5.07v.22l-1.13,0Zm1.54-2.36h.54l1.13,2.63-.89,0-.86-2.14.2-.2-1,2.3h-.31Zm-.6,1.61,1.42,0,.12.24-1.63,0Zm.87.79.6,0h.35l.67.08v.2l-1.62,0Z" transform="translate(-165.37 -98.95)"/><path class="cls-2" d="M173.18,155.14q4.84.11,9-4.56,3.61-4.1,5.16-14.44l1.63-11.31a35.21,35.21,0,0,0,3.35,4.88l1.34,1.68,1.52,1.87a55.23,55.23,0,0,1,5.72,9.16,5.86,5.86,0,0,1,.57,2.44h0a8,8,0,0,0,.84-4.81V140a10.45,10.45,0,0,0-1.09-3.42,41.33,41.33,0,0,0-4.21-6.32l-1.57-2a40.79,40.79,0,0,1-4.19-6,25.44,25.44,0,0,1-1.92-5.89h0a36.33,36.33,0,0,0-3.64,11.35l-1.71,11.65q-1.11,7.36-2.85,10.31a5.35,5.35,0,0,1-5,2.86,6.88,6.88,0,0,1-3.35-1.18l-3.16,3A10.3,10.3,0,0,0,173.18,155.14Z" transform="translate(-165.37 -98.95)"/><path class="cls-2" d="M220,101.73q-4.84,0-8.87,4.76-3.51,4.19-4.83,14.55l-1.39,11.34a35.12,35.12,0,0,0-3.46-4.8l-1.37-1.65-1.56-1.84a55.3,55.3,0,0,1-5.92-9,5.92,5.92,0,0,1-.63-2.44h0a8,8,0,0,0-.73,4.84v.06a10.73,10.73,0,0,0,1.16,3.39,42.49,42.49,0,0,0,4.36,6.22l1.61,1.94A40.7,40.7,0,0,1,202.7,135a25.55,25.55,0,0,1,2.05,5.84h0a35.93,35.93,0,0,0,3.39-11.42l1.45-11.69q.94-7.38,2.63-10.36a5.34,5.34,0,0,1,4.92-3,6.89,6.89,0,0,1,3.37,1.11l3.09-3.07A10,10,0,0,0,220,101.73Z" transform="translate(-165.37 -98.95)"/></svg>